<svg width="96" height="24" viewBox="0 0 96 24" xmlns="http://www.w3.org/2000/svg" fill="none">
  <g fill="#14a800">
    <path d="M8.8 3.2c-3.2 0-5.8 2.6-5.8 5.8v5c0 3.2 2.6 5.8 5.8 5.8s5.8-2.6 5.8-5.8V9.9h-2.4v4.1c0 2-1.4 3.4-3.4 3.4s-3.4-1.4-3.4-3.4v-5c0-2 1.4-3.4 3.4-3.4 1.2 0 2.3.6 2.9 1.6l2.1-1.3C12.5 4.2 10.7 3.2 8.8 3.2z"/>
    <path d="M23.3 9.2c-1 0-1.8.4-2.4 1.1V3.7h-2.4v15.8h2.4v-5.3c0-1.2.7-2.1 1.8-2.1 1.1 0 1.8.9 1.8 2.1v5.3h2.4v-5.5c0-2.8-1.7-4.8-3.6-4.8z"/>
    <path d="M36.7 9.2c-3 0-4.9 2.2-4.9 5.2s1.9 5.2 4.9 5.2c1.1 0 2.1-.3 2.9-.9v.7h2.3V3.7h-2.3v6c-.8-.4-1.8-.5-2.9-.5zm0 8.1c-1.7 0-2.7-1.3-2.7-3 0-1.8 1-3 2.7-3 1.7 0 2.8 1.2 2.8 3 0 1.7-1.1 3-2.8 3z"/>
    <path d="M50.4 9.2c-3 0-5 2.2-5 5.2s2 5.2 5 5.2c3.1 0 5-2.2 5-5.2s-2-5.2-5-5.2zm0 8.2c-1.8 0-2.8-1.2-2.8-3 0-1.8 1-3 2.8-3s2.8 1.2 2.8 3c0 1.8-1 3-2.8 3z"/>
    <path d="M64.9 18.7c-1.7 0-2.8-1.2-2.8-3 0-1.8 1-3 2.8-3 .9 0 1.7.4 2.2 1.1l1.9-1.4c-.9-1.3-2.4-2.1-4.1-2.1-3 0-5 2.2-5 5.2s2 5.2 5 5.2c1.7 0 3.2-.7 4.1-2l-1.9-1.4c-.5.7-1.3 1.1-2.2 1.1z"/>
    <path d="M78.2 9.2c-1.1 0-2.1.3-2.9.9V3.7h-2.3v15.8h2.3v-.7c.8.6 1.8.9 2.9.9 3 0 4.9-2.2 4.9-5.2s-1.9-5.3-4.9-5.3zm-.2 8.1c-1.7 0-2.7-1.3-2.7-3 0-1.8 1-3 2.7-3 1.7 0 2.8 1.2 2.8 3 0 1.7-1.1 3-2.8 3z"/>
    <path d="M93.5 9.4c-.9-.1-1.8.3-2.3 1.1l-2.4 3.5V9.4h-2.3v10.1h2.3v-3.4l.9-1.3 2.3 4.7h2.6l-3.1-6.1 2.4-3.4z"/>
  </g>
</svg>
