<svg width="300" height="200" viewBox="0 0 300 200" xmlns="http://www.w3.org/2000/svg">
  <defs>
    <linearGradient id="bankGrad" x1="0%" y1="0%" x2="100%" y2="100%">
      <stop offset="0%" style="stop-color:#1e40af;stop-opacity:1" />
      <stop offset="100%" style="stop-color:#3730a3;stop-opacity:1" />
    </linearGradient>
  </defs>
  
  <!-- Banking Interface -->
  <rect width="300" height="200" fill="url(#bankGrad)" rx="10"/>
  
  <!-- Credit Card -->
  <rect x="50" y="60" width="80" height="50" fill="#1f2937" rx="8"/>
  <rect x="60" y="70" width="60" height="30" fill="#ffffff" rx="4"/>
  <rect x="70" y="75" width="40" height="8" fill="#1e40af"/>
  <rect x="70" y="85" width="30" height="6" fill="#6b7280"/>
  <rect x="70" y="93" width="25" height="6" fill="#6b7280"/>
  
  <!-- Laptop Screen -->
  <rect x="160" y="40" width="100" height="60" fill="#000000" rx="5"/>
  <rect x="165" y="45" width="90" height="50" fill="#1f2937" rx="3"/>
  
  <!-- Banking Dashboard -->
  <rect x="170" y="50" width="80" height="40" fill="#ffffff" rx="2"/>
  <text x="175" y="60" fill="#374151" font-family="Arial" font-size="8" font-weight="bold">
    Account Balance
  </text>
  <text x="175" y="72" fill="#1e40af" font-family="Arial" font-size="12" font-weight="bold">
    $125,430.50
  </text>
  <rect x="175" y="78" width="60" height="4" fill="#10b981"/>
  
  <!-- Hands Typing -->
  <ellipse cx="120" cy="150" rx="25" ry="15" fill="#fbbf24"/>
  <ellipse cx="180" cy="150" rx="25" ry="15" fill="#fbbf24"/>
  
  <!-- Keyboard -->
  <rect x="100" y="140" width="120" height="20" fill="#374151" rx="3"/>
  <rect x="105" y="145" width="8" height="8" fill="#ffffff" rx="1"/>
  <rect x="115" y="145" width="8" height="8" fill="#ffffff" rx="1"/>
  <rect x="125" y="145" width="8" height="8" fill="#ffffff" rx="1"/>
  <rect x="135" y="145" width="8" height="8" fill="#ffffff" rx="1"/>
  <rect x="145" y="145" width="8" height="8" fill="#ffffff" rx="1"/>
  <rect x="155" y="145" width="8" height="8" fill="#ffffff" rx="1"/>
  <rect x="165" y="145" width="8" height="8" fill="#ffffff" rx="1"/>
  <rect x="175" y="145" width="8" height="8" fill="#ffffff" rx="1"/>
  <rect x="185" y="145" width="8" height="8" fill="#ffffff" rx="1"/>
  <rect x="195" y="145" width="8" height="8" fill="#ffffff" rx="1"/>
  <rect x="205" y="145" width="8" height="8" fill="#ffffff" rx="1"/>
  
  <!-- Financial Icons -->
  <circle cx="50" cy="40" r="8" fill="#10b981" opacity="0.8"/>
  <text x="50" y="45" text-anchor="middle" fill="#ffffff" font-family="Arial" font-size="8">$</text>
  
  <circle cx="250" cy="120" r="8" fill="#f59e0b" opacity="0.8"/>
  <text x="250" y="125" text-anchor="middle" fill="#ffffff" font-family="Arial" font-size="8">📈</text>
  
  <circle cx="30" cy="160" r="6" fill="#ef4444" opacity="0.8"/>
  <text x="30" y="165" text-anchor="middle" fill="#ffffff" font-family="Arial" font-size="6">🏦</text>
</svg>
