<svg width="400" height="250" viewBox="0 0 400 250" xmlns="http://www.w3.org/2000/svg">
  <defs>
    <linearGradient id="blogGrad" x1="0%" y1="0%" x2="100%" y2="100%">
      <stop offset="0%" style="stop-color:#3b82f6;stop-opacity:1" />
      <stop offset="100%" style="stop-color:#1e40af;stop-opacity:1" />
    </linearGradient>
  </defs>
  <rect width="400" height="250" rx="15" fill="url(#blogGrad)"/>
  <rect x="30" y="30" width="340" height="120" rx="8" fill="#ffffff" opacity="0.9"/>
  <rect x="40" y="40" width="80" height="15" rx="7" fill="#3b82f6"/>
  <rect x="130" y="40" width="60" height="15" rx="7" fill="#10b981"/>
  <rect x="200" y="40" width="70" height="15" rx="7" fill="#f59e0b"/>
  <rect x="40" y="65" width="300" height="8" rx="4" fill="#6b7280"/>
  <rect x="40" y="80" width="280" height="8" rx="4" fill="#6b7280"/>
  <rect x="40" y="95" width="250" height="8" rx="4" fill="#6b7280"/>
  <rect x="40" y="110" width="290" height="8" rx="4" fill="#6b7280"/>
  <circle cx="80" cy="180" r="15" fill="#ffffff"/>
  <circle cx="130" cy="180" r="15" fill="#ffffff"/>
  <circle cx="180" cy="180" r="15" fill="#ffffff"/>
  <circle cx="230" cy="180" r="15" fill="#ffffff"/>
  <text x="200" y="220" text-anchor="middle" fill="#ffffff" font-family="Arial" font-size="14" font-weight="bold">Technology Trends & Insights</text>
</svg>
