<svg width="400" height="300" viewBox="0 0 400 300" xmlns="http://www.w3.org/2000/svg">
  <defs>
    <linearGradient id="cloudGrad" x1="0%" y1="0%" x2="100%" y2="100%">
      <stop offset="0%" style="stop-color:#1e40af;stop-opacity:1" />
      <stop offset="100%" style="stop-color:#3730a3;stop-opacity:1" />
    </linearGradient>
    <linearGradient id="serverGrad" x1="0%" y1="0%" x2="100%" y2="100%">
      <stop offset="0%" style="stop-color:#374151;stop-opacity:1" />
      <stop offset="100%" style="stop-color:#1f2937;stop-opacity:1" />
    </linearGradient>
  </defs>
  
  <!-- Cloud Infrastructure -->
  <ellipse cx="200" cy="100" rx="80" ry="40" fill="url(#cloudGrad)" opacity="0.8"/>
  <ellipse cx="190" cy="90" rx="60" ry="30" fill="url(#cloudGrad)" opacity="0.6"/>
  <ellipse cx="210" cy="85" rx="50" ry="25" fill="url(#cloudGrad)" opacity="0.7"/>
  
  <!-- Server Racks -->
  <rect x="80" y="120" width="60" height="120" fill="url(#serverGrad)"/>
  <rect x="85" y="125" width="50" height="8" fill="#10b981"/>
  <rect x="85" y="140" width="50" height="8" fill="#f59e0b"/>
  <rect x="85" y="155" width="50" height="8" fill="#ef4444"/>
  <rect x="85" y="170" width="50" height="8" fill="#3b82f6"/>
  <rect x="85" y="185" width="50" height="8" fill="#8b5cf6"/>
  <rect x="85" y="200" width="50" height="8" fill="#10b981"/>
  <rect x="85" y="215" width="50" height="8" fill="#f59e0b"/>
  
  <!-- AWS Logo Area -->
  <rect x="250" y="120" width="60" height="120" fill="#1f2937"/>
  <rect x="255" y="125" width="50" height="8" fill="#ff9900"/>
  <rect x="255" y="140" width="50" height="8" fill="#ff9900"/>
  <rect x="255" y="155" width="50" height="8" fill="#ff9900"/>
  <rect x="255" y="170" width="50" height="8" fill="#ff9900"/>
  <rect x="255" y="185" width="50" height="8" fill="#ff9900"/>
  <rect x="255" y="200" width="50" height="8" fill="#ff9900"/>
  <rect x="255" y="215" width="50" height="8" fill="#ff9900"/>
  
  <!-- Azure Logo Area -->
  <rect x="160" y="180" width="60" height="60" fill="#1f2937"/>
  <rect x="165" y="185" width="50" height="8" fill="#0078d4"/>
  <rect x="165" y="200" width="50" height="8" fill="#0078d4"/>
  <rect x="165" y="215" width="50" height="8" fill="#0078d4"/>
  <rect x="165" y="230" width="50" height="8" fill="#0078d4"/>
  
  <!-- Kubernetes Cluster -->
  <circle cx="320" cy="80" r="20" fill="#326ce5"/>
  <circle cx="310" cy="70" r="8" fill="#ffffff"/>
  <circle cx="330" cy="70" r="8" fill="#ffffff"/>
  <circle cx="310" cy="90" r="8" fill="#ffffff"/>
  <circle cx="330" cy="90" r="8" fill="#ffffff"/>
  <circle cx="320" cy="80" r="4" fill="#326ce5"/>
  
  <!-- Docker Containers -->
  <rect x="50" y="200" width="80" height="40" rx="4" fill="#2496ed"/>
  <rect x="55" y="205" width="15" height="8" fill="#ffffff"/>
  <rect x="75" y="205" width="15" height="8" fill="#ffffff"/>
  <rect x="95" y="205" width="15" height="8" fill="#ffffff"/>
  <rect x="55" y="220" width="15" height="8" fill="#ffffff"/>
  <rect x="75" y="220" width="15" height="8" fill="#ffffff"/>
  <rect x="95" y="220" width="15" height="8" fill="#ffffff"/>
  
  <!-- Network Connections -->
  <line x1="140" y1="180" x2="160" y2="180" stroke="#10b981" stroke-width="2"/>
  <line x1="220" y1="180" x2="250" y2="180" stroke="#10b981" stroke-width="2"/>
  <line x1="200" y1="140" x2="200" y2="180" stroke="#10b981" stroke-width="2"/>
  <line x1="200" y1="100" x2="320" y2="80" stroke="#10b981" stroke-width="2"/>
  
  <!-- Monitoring Dashboard -->
  <rect x="300" y="200" width="80" height="60" rx="4" fill="#1f2937"/>
  <rect x="305" y="205" width="70" height="15" fill="#10b981"/>
  <rect x="305" y="225" width="50" height="8" fill="#3b82f6"/>
  <rect x="305" y="238" width="60" height="8" fill="#f59e0b"/>
  <rect x="305" y="251" width="45" height="8" fill="#ef4444"/>
  
  <!-- Data Flow Arrows -->
  <path d="M120 180 Q150 160 180 180" stroke="#3b82f6" stroke-width="2" fill="none" marker-end="url(#arrowhead)"/>
  <path d="M260 180 Q290 160 320 180" stroke="#3b82f6" stroke-width="2" fill="none" marker-end="url(#arrowhead)"/>
  
  <defs>
    <marker id="arrowhead" markerWidth="10" markerHeight="7" refX="9" refY="3.5" orient="auto">
      <polygon points="0 0, 10 3.5, 0 7" fill="#3b82f6"/>
    </marker>
  </defs>
</svg>
