<svg width="300" height="200" viewBox="0 0 300 200" xmlns="http://www.w3.org/2000/svg">
  <defs>
    <linearGradient id="consultingGrad" x1="0%" y1="0%" x2="100%" y2="100%">
      <stop offset="0%" style="stop-color:#6366f1;stop-opacity:1" />
      <stop offset="100%" style="stop-color:#4f46e5;stop-opacity:1" />
    </linearGradient>
  </defs>
  
  <rect width="300" height="200" fill="url(#consultingGrad)" rx="10"/>
  
  <!-- Business Meeting -->
  <ellipse cx="120" cy="140" rx="25" ry="18" fill="#fbbf24"/>
  <ellipse cx="180" cy="140" rx="25" ry="18" fill="#fbbf24"/>
  
  <rect x="105" y="120" width="30" height="40" fill="#1f2937"/>
  <rect x="165" y="120" width="30" height="40" fill="#1f2937"/>
  
  <!-- Modern Table -->
  <rect x="80" y="160" width="140" height="8" fill="#374151" rx="4"/>
  <rect x="90" y="168" width="8" height="20" fill="#6b7280"/>
  <rect x="130" y="168" width="8" height="20" fill="#6b7280"/>
  <rect x="170" y="168" width="8" height="20" fill="#6b7280"/>
  <rect x="210" y="168" width="8" height="20" fill="#6b7280"/>
  
  <!-- Laptop -->
  <rect x="100" y="140" width="60" height="40" fill="#374151" rx="3"/>
  <rect x="105" y="145" width="50" height="30" fill="#1f2937" rx="2"/>
  <rect x="110" y="150" width="40" height="20" fill="#6366f1"/>
  
  <!-- Consulting Icons -->
  <circle cx="80" cy="80" r="12" fill="#ffffff" opacity="0.8"/>
  <text x="80" y="85" text-anchor="middle" fill="#6366f1" font-family="Arial" font-size="10">💼</text>
  
  <circle cx="220" cy="80" r="12" fill="#ffffff" opacity="0.8"/>
  <text x="220" y="85" text-anchor="middle" fill="#6366f1" font-family="Arial" font-size="10">📊</text>
</svg>
