<svg width="400" height="300" viewBox="0 0 400 300" xmlns="http://www.w3.org/2000/svg">
  <defs>
    <linearGradient id="bankGrad" x1="0%" y1="0%" x2="100%" y2="100%">
      <stop offset="0%" style="stop-color:#1e40af;stop-opacity:1" />
      <stop offset="100%" style="stop-color:#3730a3;stop-opacity:1" />
    </linearGradient>
  </defs>
  
  <!-- Banking Dashboard Interface -->
  <rect x="50" y="50" width="300" height="200" fill="#1f2937" rx="10"/>
  
  <!-- Header -->
  <rect x="50" y="50" width="300" height="40" fill="#374151" rx="10"/>
  <text x="70" y="75" fill="#ffffff" font-family="Arial" font-size="14" font-weight="bold">
    Digital Banking Platform
  </text>
  <circle cx="320" cy="70" r="8" fill="#10b981"/>
  <text x="320" y="75" text-anchor="middle" fill="#ffffff" font-family="Arial" font-size="8">Live</text>
  
  <!-- Account Overview -->
  <rect x="70" y="110" width="120" height="80" fill="#ffffff" rx="5"/>
  <text x="80" y="130" fill="#374151" font-family="Arial" font-size="12" font-weight="bold">
    Account Balance
  </text>
  <text x="80" y="150" fill="#10b981" font-family="Arial" font-size="20" font-weight="bold">
    $125,430.50
  </text>
  <text x="80" y="170" fill="#6b7280" font-family="Arial" font-size="10">
    +$2,450.00 this month
  </text>
  
  <!-- Transaction History -->
  <rect x="210" y="110" width="120" height="80" fill="#ffffff" rx="5"/>
  <text x="220" y="130" fill="#374151" font-family="Arial" font-size="12" font-weight="bold">
    Recent Transactions
  </text>
  <rect x="220" y="140" width="100" height="3" fill="#10b981"/>
  <text x="220" y="150" fill="#374151" font-family="Arial" font-size="10">
    Salary Deposit     +$5,000
  </text>
  <rect x="220" y="155" width="80" height="3" fill="#ef4444"/>
  <text x="220" y="165" fill="#374151" font-family="Arial" font-size="10">
    Grocery Store      -$85.50
  </text>
  <rect x="220" y="170" width="60" height="3" fill="#ef4444"/>
  <text x="220" y="180" fill="#374151" font-family="Arial" font-size="10">
    Gas Station        -$45.20
  </text>
  
  <!-- Investment Portfolio -->
  <rect x="70" y="210" width="120" height="30" fill="#ffffff" rx="5"/>
  <text x="80" y="225" fill="#374151" font-family="Arial" font-size="12" font-weight="bold">
    Investment Portfolio
  </text>
  <text x="80" y="235" fill="#3b82f6" font-family="Arial" font-size="14" font-weight="bold">
    $45,230.80 (+12.5%)
  </text>
  
  <!-- Payment Methods -->
  <rect x="210" y="210" width="120" height="30" fill="#ffffff" rx="5"/>
  <text x="220" y="225" fill="#374151" font-family="Arial" font-size="12" font-weight="bold">
    Quick Payments
  </text>
  <circle cx="230" cy="235" r="6" fill="#3b82f6"/>
  <circle cx="250" cy="235" r="6" fill="#10b981"/>
  <circle cx="270" cy="235" r="6" fill="#f59e0b"/>
  <circle cx="290" cy="235" r="6" fill="#8b5cf6"/>
  
  <!-- Trading Interface -->
  <rect x="350" y="50" width="40" height="200" fill="#000000" rx="5"/>
  <rect x="355" y="55" width="30" height="15" fill="#10b981"/>
  <text x="370" y="65" text-anchor="middle" fill="#ffffff" font-family="Arial" font-size="8">AAPL</text>
  <rect x="355" y="75" width="30" height="15" fill="#ef4444"/>
  <text x="370" y="85" text-anchor="middle" fill="#ffffff" font-family="Arial" font-size="8">MSFT</text>
  <rect x="355" y="95" width="30" height="15" fill="#10b981"/>
  <text x="370" y="105" text-anchor="middle" fill="#ffffff" font-family="Arial" font-size="8">GOOGL</text>
  <rect x="355" y="115" width="30" height="15" fill="#ef4444"/>
  <text x="370" y="125" text-anchor="middle" fill="#ffffff" font-family="Arial" font-size="8">TSLA</text>
  <rect x="355" y="135" width="30" height="15" fill="#10b981"/>
  <text x="370" y="145" text-anchor="middle" fill="#ffffff" font-family="Arial" font-size="8">AMZN</text>
  
  <!-- Security Indicators -->
  <rect x="50" y="270" width="300" height="20" fill="#374151" rx="5"/>
  <circle cx="70" cy="280" r="4" fill="#10b981"/>
  <text x="80" y="285" fill="#ffffff" font-family="Arial" font-size="10">
    SSL Encrypted
  </text>
  <circle cx="180" cy="280" r="4" fill="#10b981"/>
  <text x="190" y="285" fill="#ffffff" font-family="Arial" font-size="10">
    2FA Enabled
  </text>
  <circle cx="280" cy="280" r="4" fill="#10b981"/>
  <text x="290" y="285" fill="#ffffff" font-family="Arial" font-size="10">
    Biometric Auth
  </text>
  
  <!-- Floating Elements -->
  <circle cx="30" cy="80" r="12" fill="#3b82f6" opacity="0.7"/>
  <text x="30" y="85" text-anchor="middle" fill="#ffffff" font-family="Arial" font-size="8">$</text>
  
  <circle cx="30" cy="150" r="10" fill="#10b981" opacity="0.7"/>
  <text x="30" y="155" text-anchor="middle" fill="#ffffff" font-family="Arial" font-size="8">📈</text>
  
  <circle cx="30" cy="220" r="8" fill="#f59e0b" opacity="0.7"/>
  <text x="30" y="225" text-anchor="middle" fill="#ffffff" font-family="Arial" font-size="8">💳</text>
</svg>
