<svg width="300" height="200" viewBox="0 0 300 200" xmlns="http://www.w3.org/2000/svg">
  <defs>
    <linearGradient id="transportGrad" x1="0%" y1="0%" x2="100%" y2="100%">
      <stop offset="0%" style="stop-color:#3b82f6;stop-opacity:1" />
      <stop offset="100%" style="stop-color:#1e40af;stop-opacity:1" />
    </linearGradient>
    <linearGradient id="skyGrad" x1="0%" y1="0%" x2="100%" y2="100%">
      <stop offset="0%" style="stop-color:#dbeafe;stop-opacity:1" />
      <stop offset="100%" style="stop-color:#bfdbfe;stop-opacity:1" />
    </linearGradient>
  </defs>
  
  <!-- Sky Background -->
  <rect width="300" height="120" fill="url(#skyGrad)"/>
  
  <!-- Road Background -->
  <rect x="0" y="120" width="300" height="80" fill="#374151"/>
  
  <!-- Road Lines -->
  <rect x="0" y="155" width="300" height="4" fill="#fbbf24"/>
  <rect x="0" y="155" width="60" height="4" fill="#fbbf24"/>
  <rect x="80" y="155" width="60" height="4" fill="#fbbf24"/>
  <rect x="160" y="155" width="60" height="4" fill="#fbbf24"/>
  <rect x="240" y="155" width="60" height="4" fill="#fbbf24"/>
  
  <!-- Trees -->
  <rect x="20" y="100" width="8" height="20" fill="#8b4513"/>
  <ellipse cx="24" cy="100" rx="12" ry="15" fill="#10b981"/>
  
  <rect x="260" y="100" width="8" height="20" fill="#8b4513"/>
  <ellipse cx="264" cy="100" rx="12" ry="15" fill="#10b981"/>
  
  <rect x="50" y="110" width="6" height="10" fill="#8b4513"/>
  <ellipse cx="53" cy="110" rx="8" ry="10" fill="#10b981"/>
  
  <rect x="240" y="110" width="6" height="10" fill="#8b4513"/>
  <ellipse cx="243" cy="110" rx="8" ry="10" fill="#10b981"/>
  
  <!-- Semi Truck -->
  <rect x="80" y="130" width="120" height="40" fill="#ffffff" rx="5"/>
  
  <!-- Truck Cab -->
  <rect x="80" y="130" width="50" height="40" fill="#1e40af" rx="5"/>
  <rect x="85" y="135" width="40" height="30" fill="#3b82f6" rx="3"/>
  <circle cx="90" cy="145" r="3" fill="#ffffff"/>
  <circle cx="95" cy="145" r="3" fill="#ffffff"/>
  <circle cx="100" cy="145" r="3" fill="#ffffff"/>
  <circle cx="105" cy="145" r="3" fill="#ffffff"/>
  <circle cx="110" cy="145" r="3" fill="#ffffff"/>
  <circle cx="115" cy="145" r="3" fill="#ffffff"/>
  <circle cx="120" cy="145" r="3" fill="#ffffff"/>
  
  <!-- Trailer -->
  <rect x="130" y="135" width="70" height="35" fill="#6b7280" rx="3"/>
  <rect x="135" y="140" width="60" height="25" fill="#9ca3af" rx="2"/>
  
  <!-- Wheels -->
  <circle cx="95" cy="175" r="8" fill="#1f2937"/>
  <circle cx="95" cy="175" r="5" fill="#374151"/>
  <circle cx="95" cy="175" r="2" fill="#6b7280"/>
  
  <circle cx="175" cy="175" r="8" fill="#1f2937"/>
  <circle cx="175" cy="175" r="5" fill="#374151"/>
  <circle cx="175" cy="175" r="2" fill="#6b7280"/>
  
  <circle cx="195" cy="175" r="8" fill="#1f2937"/>
  <circle cx="195" cy="175" r="5" fill="#374151"/>
  <circle cx="195" cy="175" r="2" fill="#6b7280"/>
  
  <!-- Logistics Icons -->
  <circle cx="50" cy="50" r="8" fill="#10b981" opacity="0.8"/>
  <text x="50" y="55" text-anchor="middle" fill="#ffffff" font-family="Arial" font-size="8">🚚</text>
  
  <circle cx="250" cy="50" r="8" fill="#f59e0b" opacity="0.8"/>
  <text x="250" y="55" text-anchor="middle" fill="#ffffff" font-family="Arial" font-size="8">📦</text>
  
  <circle cx="150" cy="30" r="6" fill="#3b82f6" opacity="0.8"/>
  <text x="150" y="35" text-anchor="middle" fill="#ffffff" font-family="Arial" font-size="6">🗺️</text>
</svg>
