<svg width="400" height="300" viewBox="0 0 400 300" xmlns="http://www.w3.org/2000/svg">
  <defs>
    <linearGradient id="phoneGrad" x1="0%" y1="0%" x2="100%" y2="100%">
      <stop offset="0%" style="stop-color:#1f2937;stop-opacity:1" />
      <stop offset="100%" style="stop-color:#111827;stop-opacity:1" />
    </linearGradient>
    <linearGradient id="screenGrad2" x1="0%" y1="0%" x2="100%" y2="100%">
      <stop offset="0%" style="stop-color:#3b82f6;stop-opacity:1" />
      <stop offset="100%" style="stop-color:#1e40af;stop-opacity:1" />
    </linearGradient>
  </defs>
  
  <!-- iPhone Mockup -->
  <rect x="150" y="40" width="100" height="200" rx="25" fill="url(#phoneGrad)"/>
  <rect x="160" y="60" width="80" height="160" rx="15" fill="#000000"/>
  
  <!-- Screen Content -->
  <rect x="160" y="60" width="80" height="160" rx="15" fill="url(#screenGrad2)"/>
  
  <!-- Status Bar -->
  <rect x="160" y="60" width="80" height="15" fill="#1f2937"/>
  <circle cx="170" cy="67" r="2" fill="#10b981"/>
  <rect x="175" y="66" width="15" height="2" fill="#ffffff"/>
  <text x="195" y="70" fill="#ffffff" font-family="Arial" font-size="6">100%</text>
  
  <!-- App Interface -->
  <rect x="170" y="80" width="60" height="30" rx="8" fill="#ffffff" opacity="0.9"/>
  <rect x="175" y="85" width="20" height="4" fill="#3b82f6"/>
  <rect x="200" y="85" width="15" height="4" fill="#10b981"/>
  <rect x="220" y="85" width="10" height="4" fill="#f59e0b"/>
  
  <rect x="175" y="95" width="50" height="2" fill="#6b7280"/>
  <rect x="175" y="100" width="40" height="2" fill="#6b7280"/>
  <rect x="175" y="105" width="45" height="2" fill="#6b7280"/>
  
  <!-- Navigation -->
  <rect x="170" y="120" width="60" height="8" rx="4" fill="#374151"/>
  <rect x="175" y="122" width="12" height="4" fill="#3b82f6"/>
  <rect x="190" y="122" width="12" height="4" fill="#6b7280"/>
  <rect x="205" y="122" width="12" height="4" fill="#6b7280"/>
  
  <!-- Data Visualization -->
  <rect x="170" y="140" width="60" height="40" fill="#ffffff" opacity="0.9"/>
  <rect x="175" y="145" width="8" height="20" fill="#3b82f6"/>
  <rect x="185" y="150" width="8" height="15" fill="#10b981"/>
  <rect x="195" y="140" width="8" height="25" fill="#f59e0b"/>
  <rect x="205" y="155" width="8" height="10" fill="#ef4444"/>
  <rect x="215" y="148" width="8" height="17" fill="#8b5cf6"/>
  
  <!-- Floating Elements -->
  <circle cx="100" cy="80" r="20" fill="#3b82f6" opacity="0.7"/>
  <circle cx="300" cy="120" r="15" fill="#10b981" opacity="0.7"/>
  <circle cx="80" cy="180" r="12" fill="#f59e0b" opacity="0.7"/>
  <circle cx="320" cy="200" r="18" fill="#8b5cf6" opacity="0.7"/>
  
  <!-- Code Snippets -->
  <rect x="50" y="50" width="80" height="60" rx="4" fill="#1f2937" opacity="0.9"/>
  <text x="60" y="65" fill="#10b981" font-family="Monaco, monospace" font-size="8">
    React Native
  </text>
  <text x="60" y="78" fill="#3b82f6" font-family="Monaco, monospace" font-size="8">
    const App = () => {
  </text>
  <text x="60" y="91" fill="#f59e0b" font-family="Monaco, monospace" font-size="8">
      return (
  </text>
  <text x="60" y="104" fill="#ef4444" font-family="Monaco, monospace" font-size="8">
        &lt;View&gt;
  </text>
  
  <!-- Flutter Logo -->
  <rect x="270" y="180" width="80" height="60" rx="4" fill="#1f2937" opacity="0.9"/>
  <text x="280" y="195" fill="#00d4aa" font-family="Arial" font-size="8" font-weight="bold">
    Flutter
  </text>
  <text x="280" y="208" fill="#ffffff" font-family="Monaco, monospace" font-size="8">
    class MyApp extends StatelessWidget {
  </text>
  <text x="280" y="221" fill="#f59e0b" font-family="Monaco, monospace" font-size="8">
      Widget build(BuildContext context) {
  </text>
  <text x="280" y="234" fill="#ef4444" font-family="Monaco, monospace" font-size="8">
        return MaterialApp(
  </text>
</svg>
